<svg width="24" height="24" viewBox="0 0 24 24" fill="none" xmlns="http://www.w3.org/2000/svg">
<g clip-path="url(#clip0_17394_18783)">
<path fill-rule="evenodd" clip-rule="evenodd" d="M18.0751 5.0229C15.9294 3.61125 12.9387 3.02394 10.1641 3.48637C4.80467 4.3796 1.63146 9.73305 3.44836 15.1837C4.35267 17.8967 6.14076 19.4379 7.77229 20.1449C8.59663 20.5021 9.35642 20.6357 9.92091 20.6177C10.4421 20.601 10.6279 20.47 10.6634 20.445C10.6709 20.4398 10.6717 20.4392 10.6676 20.4453C10.7868 20.2665 10.7955 20.1531 10.7854 20.0479C10.7702 19.8876 10.7065 19.7095 10.5712 19.3714L10.5556 19.3324C10.4402 19.0449 10.2681 18.6156 10.2229 18.1417C10.1705 17.5906 10.2868 17.0165 10.6676 16.4453C11.0027 15.9426 11.5503 15.7369 11.9396 15.6332C12.3619 15.5208 12.8557 15.4649 13.3399 15.4252C13.6444 15.4002 13.9538 15.3806 14.2681 15.3606C15.0159 15.3131 15.7913 15.2639 16.5937 15.1372C17.7138 14.9603 18.7181 14.651 19.4842 14.0859C20.2147 13.547 20.7996 12.7243 21.0113 11.3479C21.4418 8.5496 20.182 6.40907 18.0751 5.0229ZM19.1743 3.35207C21.8173 5.09091 23.5575 7.95037 22.988 11.652C22.6998 13.5257 21.8472 14.828 20.6714 15.6953C19.5312 16.5365 18.1605 16.9146 16.9056 17.1127C16.0051 17.2549 15.0755 17.3141 14.298 17.3636L14.2979 17.3636L14.2976 17.3636C14.0088 17.382 13.7409 17.399 13.5032 17.4185C13.0343 17.4569 12.6922 17.5026 12.4543 17.5659C12.3723 17.5877 12.3209 17.607 12.2915 17.6198C12.2106 17.7621 12.2052 17.8602 12.2139 17.952C12.2292 18.1124 12.2929 18.2905 12.4282 18.6286L12.4438 18.6676C12.5591 18.9551 12.7313 19.3843 12.7764 19.8583C12.8289 20.4093 12.7125 20.9835 12.3317 21.5547C11.8083 22.3398 10.823 22.5899 9.9847 22.6166C9.08044 22.6455 8.02773 22.4353 6.97707 21.98C4.8586 21.062 2.64668 19.1033 1.551 15.8162C-0.632107 9.26689 3.19469 2.62034 9.83528 1.51358C13.0607 0.976023 16.57 1.63872 19.1743 3.35207ZM18.9997 10C18.9997 10.8284 18.3281 11.5 17.4997 11.5C16.6712 11.5 15.9997 10.8284 15.9997 10C15.9997 9.17157 16.6712 8.5 17.4997 8.5C18.3281 8.5 18.9997 9.17157 18.9997 10ZM13.4997 8.75C14.3281 8.75 14.9997 8.07843 14.9997 7.25C14.9997 6.42157 14.3281 5.75 13.4997 5.75C12.6712 5.75 11.9997 6.42157 11.9997 7.25C11.9997 8.07843 12.6712 8.75 13.4997 8.75ZM10.4997 8.5C10.4997 9.32843 9.8281 10 8.99968 10C8.17125 10 7.49968 9.32843 7.49968 8.5C7.49968 7.67157 8.17125 7 8.99968 7C9.8281 7 10.4997 7.67157 10.4997 8.5ZM6.99968 14.25C7.8281 14.25 8.49968 13.5784 8.49968 12.75C8.49968 11.9216 7.8281 11.25 6.99968 11.25C6.17125 11.25 5.49968 11.9216 5.49968 12.75C5.49968 13.5784 6.17125 14.25 6.99968 14.25Z" fill="#71747A"/>
</g>
<defs>
<clipPath id="clip0_17394_18783">
<rect width="24" height="24" fill="white"/>
</clipPath>
</defs>
</svg>
