<svg width="29" height="34" viewBox="0 0 29 34" fill="none" xmlns="http://www.w3.org/2000/svg">
<path fill-rule="evenodd" clip-rule="evenodd" d="M19.7077 32.6298C14.8443 30.528 13.5603 25.699 14.9396 21.9288C14.9396 21.9288 18.1302 22.9188 20.6509 23.7092C23.1717 24.4996 24.7229 23.5506 25.5867 22.3166C26.468 21.0827 26.7325 19.1907 25.1988 17.3456C23.6652 15.5005 20.2278 11.2817 20.2278 11.2817L28.8301 1.26919L27.0321 0L17.7423 5.62935C16.738 5.40606 15.6939 5.2883 14.6223 5.2883C6.71704 5.2883 0.308594 11.6967 0.308594 19.602C0.308594 27.9687 6.85446 33.8203 14.9872 33.8203C16.4749 33.8203 18.6569 33.4236 19.7077 32.6298Z" fill="url(#paint0_linear_17345_25668)"/>
<path fill-rule="evenodd" clip-rule="evenodd" d="M10.1646 12.7413C10.1698 12.7248 10.175 12.7084 10.1803 12.6919C10.1803 12.6919 10.1803 12.692 10.1802 12.692C10.1749 12.7084 10.1697 12.7249 10.1646 12.7413ZM10.1802 12.692C8.38586 16.1956 8.40448 19.2647 12.4087 21.0773C12.6552 21.1888 12.8745 21.2746 13.052 21.3381C11.9429 24.9173 12.655 29.6073 15.7808 32.1343C6.02204 31.4401 2.49086 18.5468 10.1802 12.692Z" fill="#DAE4F2"/>
<path d="M24.6055 20.0907C24.5976 19.6518 24.4403 19.0815 23.8966 18.4273C21.9208 16.0501 19.9732 13.6492 18.0207 11.2529L24.8563 3.29668L15.6438 8.67282L16.1374 7.0705C8.63885 6.14916 2 12.1276 2 19.602C2 27.0369 8.34131 32.3326 15.7798 32.1342C8.99764 30.5286 4.57694 20.4316 10.1792 12.6919C8.34596 18.4033 13.953 19.8511 13.953 19.8511L21.1564 22.0945C22.1272 22.3989 22.7598 22.3265 23.1647 22.1803C23.5806 22.0302 23.9226 21.7416 24.1995 21.3462L24.2041 21.3396L24.2088 21.333C24.4615 20.9791 24.6138 20.5477 24.6055 20.0907Z" fill="white"/>
<path fill-rule="evenodd" clip-rule="evenodd" d="M16.4793 14.6028C16.5163 14.5336 16.5488 14.4609 16.5763 14.3849C16.8867 13.5285 16.4453 12.5808 15.5904 12.2683C14.7356 11.9558 13.791 12.3968 13.4806 13.2533C13.4532 13.3288 13.4317 13.4051 13.4158 13.4816C13.9577 13.3031 14.5614 13.299 15.1395 13.5104C15.7181 13.7219 16.1784 14.1154 16.4793 14.6028Z" fill="#7373BF"/>
<defs>
<linearGradient id="paint0_linear_17345_25668" x1="28.8293" y1="1.15638" x2="3.26521" y2="28.0101" gradientUnits="userSpaceOnUse">
<stop stop-color="#FEC519"/>
<stop offset="0.278985" stop-color="#E62E5C"/>
<stop offset="0.760754" stop-color="#45A3E6"/>
<stop offset="1" stop-color="#5CE6C3"/>
</linearGradient>
</defs>
</svg>
