<svg width="24" height="24" viewBox="0 0 24 24" fill="none" xmlns="http://www.w3.org/2000/svg">
<g clip-path="url(#clip0_17345_21849)">
<path fill-rule="evenodd" clip-rule="evenodd" d="M12.7832 23.5C13.8176 23.5 14.7452 22.8629 15.1166 21.8975C15.7224 20.3223 17.3464 19.3847 19.0135 19.6476C20.0353 19.8087 21.0508 19.3239 21.568 18.4281L22.351 17.0719C22.8682 16.1761 22.7803 15.0542 22.1298 14.2499C21.0686 12.9377 21.0686 11.0623 22.1298 9.75013C22.7803 8.9458 22.8682 7.82394 22.351 6.9281L21.568 5.5719C21.0508 4.67606 20.0353 4.19127 19.0135 4.35242C17.3464 4.61533 15.7224 3.67768 15.1166 2.10255C14.7452 1.13707 13.8176 0.5 12.7832 0.5H11.2172C10.1828 0.5 9.25516 1.13707 8.88383 2.10256C8.27801 3.67768 6.65394 4.61534 4.98694 4.35243C3.96514 4.19128 2.94962 4.67606 2.43241 5.57191L1.64941 6.9281C1.13219 7.82395 1.22011 8.94581 1.87058 9.75013C2.93177 11.0623 2.93177 12.9377 1.87058 14.2499C1.22012 15.0542 1.13219 16.1761 1.64941 17.0719L2.43241 18.4281C2.94962 19.3239 3.96514 19.8087 4.98694 19.6476C6.65395 19.3847 8.27802 20.3223 8.88383 21.8974C9.25517 22.8629 10.1828 23.5 11.2172 23.5L12.7832 23.5ZM8.5002 12C8.5002 10.067 10.0672 8.5 12.0002 8.5C13.9332 8.5 15.5002 10.067 15.5002 12C15.5002 13.933 13.9332 15.5 12.0002 15.5C10.0672 15.5 8.5002 13.933 8.5002 12Z" fill="#248BF2"/>
</g>
<defs>
<clipPath id="clip0_17345_21849">
<rect width="24" height="24" fill="white"/>
</clipPath>
</defs>
</svg>
