<svg width="24" height="24" viewBox="0 0 24 24" fill="none" xmlns="http://www.w3.org/2000/svg">
<g clip-path="url(#clip0_17394_18811)">
<circle cx="12" cy="12.0001" r="10" stroke="black" stroke-width="1" stroke-linecap="round" stroke-linejoin="round"/>
<circle cx="12" cy="17.2501" r="1.25" fill="black"/>
<path fill-rule="evenodd" clip-rule="evenodd" d="M10.5 9.5C10.5 8.6716 11.1716 8.00006 12 8.00006C12.8284 8.00006 13.5 8.67163 13.5 9.50006V9.55403C13.5 10.0999 13.2136 10.6057 12.7455 10.8865L12.343 11.1281C11.5098 11.628 11 12.5284 11 13.5001H11.0001C11.0002 14.0523 11.4479 14.5 12.0001 14.5C12.5524 14.5 13.0001 14.0523 13.0001 13.5H13C13 13.2309 13.1412 12.9815 13.372 12.8431L13.7745 12.6015C14.845 11.9592 15.5 10.8024 15.5 9.55403V9.50006C15.5 7.56706 13.933 6.00006 12 6.00006C10.067 6.00006 8.5 7.56706 8.5 9.50006H8.50012C8.50016 10.0523 8.94786 10.5 9.50012 10.5C10.0524 10.5 10.5001 10.0523 10.5001 9.5H10.5Z" fill="black"/>
<path d="M13.2501 17.2501C13.2501 17.9404 12.6905 18.5001 12.0001 18.5001C11.3098 18.5001 10.7501 17.9404 10.7501 17.2501C10.7501 16.5597 11.3098 16.0001 12.0001 16.0001C12.6905 16.0001 13.2501 16.5597 13.2501 17.2501Z" fill="#71747A"/>
<path d="M12 8.00006C11.1716 8.00006 10.5 8.6716 10.5 9.5C10.5 10.0523 10.0524 10.5 9.50012 10.5C8.94786 10.5 8.50016 10.0523 8.50012 9.50006C8.50012 7.56706 10.067 6.00006 12 6.00006C13.933 6.00006 15.5 7.56706 15.5 9.50006V9.55403C15.5 10.8024 14.845 11.9592 13.7745 12.6015L13.372 12.8431C13.1412 12.9815 13 13.2309 13 13.5C13 14.0523 12.5524 14.5 12.0001 14.5C11.4479 14.5 11.0002 14.0523 11.0001 13.5001C11.0001 12.5284 11.5098 11.628 12.343 11.1281L12.7455 10.8865C13.2136 10.6057 13.5 10.0999 13.5 9.55403V9.50006C13.5 8.67163 12.8284 8.00006 12 8.00006Z" fill="#71747A"/>
<path fill-rule="evenodd" clip-rule="evenodd" d="M1 12.0001C1 5.92493 5.92487 1.00006 12 1.00006C18.0751 1.00006 23 5.92493 23 12.0001C23 18.0752 18.0751 23.0001 12 23.0001C5.92487 23.0001 1 18.0752 1 12.0001ZM12 3.00006C7.02944 3.00006 3 7.0295 3 12.0001C3 16.9706 7.02944 21.0001 12 21.0001C16.9706 21.0001 21 16.9706 21 12.0001C21 7.0295 16.9706 3.00006 12 3.00006Z" fill="#71747A"/>
</g>
<defs>
<clipPath id="clip0_17394_18811">
<rect width="24" height="24" fill="white"/>
</clipPath>
</defs>
</svg>
